<?xml version="1.0" encoding="UTF-8"?>
<svg xmlns="http://www.w3.org/2000/svg" width="980" height="780" viewBox="0 0 980 780" font-family="Microsoft YaHei UI, Segoe UI, PingFang SC, sans-serif">
<rect x="0" y="0" width="980" height="780" rx="0" fill="#F6F7F9"/>
<rect x="0" y="0" width="980" height="34" rx="0" fill="#FCFDFE"/>
<text x="18" y="23" font-size="13" fill="#1E293B" text-anchor="start" font-weight="700">RSS Magnet Collector</text>
<text x="300" y="23" font-size="12.5" fill="#1E293B" text-anchor="start">订阅</text>
<text x="352" y="23" font-size="12.5" fill="#1E293B" text-anchor="start">检查</text>
<text x="404" y="23" font-size="12.5" fill="#1E293B" text-anchor="start">导出</text>
<text x="456" y="23" font-size="12.5" fill="#1E293B" text-anchor="start">工具</text>
<line x1="0" y1="34" x2="980" y2="34" stroke="#E2E8F0" stroke-width="1"/>
<rect x="0" y="34" width="980" height="58" rx="0" fill="#FCFDFE"/>
<text x="18" y="56" font-size="11" fill="#1E293B" text-anchor="start" font-weight="700">当前范围：待导出</text>
<text x="160" y="56" font-size="11" fill="#1E293B" text-anchor="start" font-weight="700">| 可见 26 | 可导出 12 | 待导出 12 | 符合条件 8 | 已勾选 5</text>
<rect x="820" y="43" width="120" height="24" rx="5" fill="#1D4ED8"/>
<text x="880" y="59" font-size="11" fill="#fff" text-anchor="middle">取消批选</text>
<text x="18" y="78" font-size="10.5" fill="#64748B" text-anchor="start">条件：(GBK|CHS|简);(1080p)</text>
<text x="420" y="78" font-size="10.5" fill="#1D4ED8" text-anchor="start">批次：已勾选 5 · 导出后剩余转为暂不导出</text>
<line x1="0" y1="92" x2="980" y2="92" stroke="#E2E8F0" stroke-width="1"/>
<rect x="0" y="92" width="980" height="78" rx="0" fill="#FCFDFE"/>
<text x="18" y="116" font-size="12" fill="#1E293B" text-anchor="start" font-weight="700">条件：</text>
<rect x="72" y="104" width="260" height="22" rx="5" fill="#FFFFFF" stroke="#E2E8F0" stroke-width="1"/>
<text x="80" y="119" font-size="11" fill="#1E293B" text-anchor="start">(GBK|CHS|简);(1080p)</text>
<rect x="344" y="104" width="78" height="22" rx="5" fill="#FCFDFE" stroke="#E2E8F0" stroke-width="1"/>
<text x="383" y="119" font-size="11" fill="#1E293B" text-anchor="middle">应用条件</text>
<rect x="430" y="104" width="78" height="22" rx="5" fill="#FCFDFE" stroke="#E2E8F0" stroke-width="1"/>
<text x="469" y="119" font-size="11" fill="#1E293B" text-anchor="middle">条件选择</text>
<rect x="516" y="104" width="78" height="22" rx="5" fill="#FCFDFE" stroke="#E2E8F0" stroke-width="1"/>
<text x="555" y="119" font-size="11" fill="#1E293B" text-anchor="middle">清空条件</text>
<rect x="18" y="138" width="74" height="20" rx="4" fill="#FCFDFE" stroke="#E2E8F0" stroke-width="1"/>
<text x="55.0" y="152" font-size="10" fill="#1E293B" text-anchor="middle">GBK|CHS|简</text>
<rect x="100" y="138" width="74" height="20" rx="4" fill="#FCFDFE" stroke="#E2E8F0" stroke-width="1"/>
<text x="137.0" y="152" font-size="10" fill="#1E293B" text-anchor="middle">BIG5|CHT|繁</text>
<rect x="182" y="138" width="44" height="20" rx="4" fill="#FCFDFE" stroke="#E2E8F0" stroke-width="1"/>
<text x="204.0" y="152" font-size="10" fill="#1E293B" text-anchor="middle">720p</text>
<rect x="234" y="138" width="52" height="20" rx="4" fill="#FCFDFE" stroke="#E2E8F0" stroke-width="1"/>
<text x="260.0" y="152" font-size="10" fill="#1E293B" text-anchor="middle">1080p</text>
<rect x="294" y="138" width="56" height="20" rx="4" fill="#FCFDFE" stroke="#E2E8F0" stroke-width="1"/>
<text x="322.0" y="152" font-size="10" fill="#1E293B" text-anchor="middle">1080p+</text>
<rect x="358" y="138" width="68" height="20" rx="4" fill="#FCFDFE" stroke="#E2E8F0" stroke-width="1"/>
<text x="392.0" y="152" font-size="10" fill="#1E293B" text-anchor="middle">2160p|4K</text>
<rect x="434" y="138" width="70" height="20" rx="4" fill="#FCFDFE" stroke="#E2E8F0" stroke-width="1"/>
<text x="469.0" y="152" font-size="10" fill="#1E293B" text-anchor="middle">HEVC|H265</text>
<rect x="512" y="138" width="68" height="20" rx="4" fill="#FCFDFE" stroke="#E2E8F0" stroke-width="1"/>
<text x="546.0" y="152" font-size="10" fill="#1E293B" text-anchor="middle">AVC|H264</text>
<rect x="588" y="138" width="84" height="20" rx="4" fill="#FCFDFE" stroke="#E2E8F0" stroke-width="1"/>
<text x="630.0" y="152" font-size="10" fill="#1E293B" text-anchor="middle">字幕|内嵌|外挂</text>
<line x1="0" y1="170" x2="980" y2="170" stroke="#E2E8F0" stroke-width="1"/>
<rect x="0" y="170" width="980" height="40" rx="0" fill="#FCFDFE"/>
<text x="18" y="196" font-size="12" fill="#1E293B" text-anchor="start" font-weight="700">搜索：</text>
<rect x="72" y="182" width="360" height="22" rx="5" fill="#FFFFFF" stroke="#E2E8F0" stroke-width="1"/>
<text x="80" y="197" font-size="10.5" fill="#64748B" text-anchor="start">搜索当前栏目，多个关键词用空格分隔</text>
<text x="448" y="196" font-size="11" fill="#1E293B" text-anchor="start">☑ 全局</text>
<text x="516" y="196" font-size="11" fill="#1E293B" text-anchor="start">☑ 含删除</text>
<rect x="600" y="182" width="56" height="22" rx="5" fill="#FCFDFE" stroke="#E2E8F0" stroke-width="1"/>
<text x="628" y="197" font-size="11" fill="#1E293B" text-anchor="middle">清空</text>
<line x1="0" y1="210" x2="980" y2="210" stroke="#E2E8F0" stroke-width="1"/>
<rect x="0" y="210" width="250" height="424" rx="0" fill="#F1F3F6"/>
<text x="18" y="234" font-size="12" fill="#1E293B" text-anchor="start" font-weight="700">订阅与视图</text>
<text x="26" y="258" font-size="11" fill="#1E293B" text-anchor="start" font-weight="700">▶ 工作区</text>
<text x="26" y="278" font-size="11" fill="#1E293B" text-anchor="start" font-weight="700">   待导出</text>
<text x="26" y="298" font-size="11" fill="#1E293B" text-anchor="start" font-weight="700">   暂不导出</text>
<text x="26" y="318" font-size="11" fill="#1E293B" text-anchor="start" font-weight="700">   已导出</text>
<text x="26" y="338" font-size="11" fill="#1E293B" text-anchor="start" font-weight="700">   异常条目</text>
<text x="26" y="358" font-size="11" fill="#1E293B" text-anchor="start" font-weight="700">   检查失败</text>
<text x="26" y="378" font-size="11" fill="#1E293B" text-anchor="start" font-weight="700">▶ RSS 订阅</text>
<text x="26" y="398" font-size="11" fill="#64748B" text-anchor="start">   分组：动画</text>
<text x="26" y="418" font-size="11" fill="#64748B" text-anchor="start">     日丸动漫</text>
<text x="26" y="438" font-size="11" fill="#64748B" text-anchor="start">     Mikan</text>
<text x="26" y="458" font-size="11" fill="#64748B" text-anchor="start">   分组：剧集</text>
<text x="26" y="478" font-size="11" fill="#64748B" text-anchor="start">   分组：其他</text>
<line x1="250" y1="210" x2="250" y2="634" stroke="#E2E8F0" stroke-width="1"/>
<rect x="250" y="210" width="730" height="424" rx="0" fill="#FCFDFE"/>
<text x="268" y="234" font-size="12" fill="#1E293B" text-anchor="start" font-weight="700">条目列表</text>
<rect x="268" y="254" width="694" height="32" rx="0" fill="#F1F3F6"/>
<text x="276" y="275" font-size="10.5" fill="#1E293B" text-anchor="start" font-weight="700">勾选</text>
<line x1="308" y1="254" x2="308" y2="286" stroke="#E2E8F0" stroke-width="1"/>
<text x="316" y="275" font-size="10.5" fill="#1E293B" text-anchor="start" font-weight="700">NEW</text>
<line x1="352" y1="254" x2="352" y2="286" stroke="#E2E8F0" stroke-width="1"/>
<text x="360" y="275" font-size="10.5" fill="#1E293B" text-anchor="start" font-weight="700">标题</text>
<line x1="602" y1="254" x2="602" y2="286" stroke="#E2E8F0" stroke-width="1"/>
<text x="610" y="275" font-size="10.5" fill="#1E293B" text-anchor="start" font-weight="700">订阅源</text>
<line x1="722" y1="254" x2="722" y2="286" stroke="#E2E8F0" stroke-width="1"/>
<text x="730" y="275" font-size="10.5" fill="#1E293B" text-anchor="start" font-weight="700">磁力</text>
<line x1="778" y1="254" x2="778" y2="286" stroke="#E2E8F0" stroke-width="1"/>
<text x="786" y="275" font-size="10.5" fill="#1E293B" text-anchor="start" font-weight="700">种子</text>
<line x1="834" y1="254" x2="834" y2="286" stroke="#E2E8F0" stroke-width="1"/>
<text x="842" y="275" font-size="10.5" fill="#1E293B" text-anchor="start" font-weight="700">提取状态</text>
<line x1="944" y1="254" x2="944" y2="286" stroke="#E2E8F0" stroke-width="1"/>
<text x="952" y="275" font-size="10.5" fill="#1E293B" text-anchor="start" font-weight="700">发布时间</text>
<line x1="1044" y1="254" x2="1044" y2="286" stroke="#E2E8F0" stroke-width="1"/>
<rect x="268" y="286" width="694" height="30" rx="0" fill="#FFFFFF"/>
<text x="276" y="306" font-size="11" fill="#1E293B" text-anchor="start">☑</text>
<rect x="312" y="295" width="30" height="14" rx="4" fill="#DBEAFE"/>
<text x="327" y="305" font-size="9" fill="#1D4ED8" text-anchor="middle" font-weight="700">NEW</text>
<text x="360" y="304" font-size="10.5" fill="#1E293B" text-anchor="start">[动画] 日丸新作 2026 第12话 GBK 1080p 简体内嵌</text>
<text x="610" y="304" font-size="10.5" fill="#64748B" text-anchor="start">日丸动漫</text>
<text x="730" y="304" font-size="10.5" fill="#1E293B" text-anchor="middle">已提取</text>
<text x="786" y="304" font-size="10.5" fill="#1E293B" text-anchor="middle">已提取</text>
<text x="842" y="304" font-size="10.5" fill="#64748B" text-anchor="start">2026-07-10</text>
<rect x="268" y="316" width="694" height="30" rx="0" fill="#FAFAFC"/>
<text x="276" y="336" font-size="11" fill="#1E293B" text-anchor="start">--</text>
<text x="322" y="336" font-size="11" fill="#64748B" text-anchor="middle">--</text>
<text x="360" y="334" font-size="10.5" fill="#1E293B" text-anchor="start">[剧集] 某剧 S01 繁体 2160p HEVC</text>
<text x="610" y="334" font-size="10.5" fill="#64748B" text-anchor="start">Mikan</text>
<text x="730" y="334" font-size="10.5" fill="#1E293B" text-anchor="middle">已提取</text>
<text x="786" y="334" font-size="10.5" fill="#1E293B" text-anchor="middle">缺种子</text>
<text x="842" y="334" font-size="10.5" fill="#64748B" text-anchor="start">2026-07-10</text>
<rect x="268" y="346" width="694" height="30" rx="0" fill="#FFFFFF"/>
<text x="276" y="366" font-size="11" fill="#1E293B" text-anchor="start">☑</text>
<text x="322" y="366" font-size="11" fill="#64748B" text-anchor="middle">--</text>
<text x="360" y="364" font-size="10.5" fill="#1E293B" text-anchor="start">[其他] 资源 720p AVC H264 简体外挂</text>
<text x="610" y="364" font-size="10.5" fill="#64748B" text-anchor="start">Mikan</text>
<text x="730" y="364" font-size="10.5" fill="#1E293B" text-anchor="middle">被规则过滤</text>
<text x="786" y="364" font-size="10.5" fill="#1E293B" text-anchor="middle">已提取</text>
<text x="842" y="364" font-size="10.5" fill="#64748B" text-anchor="start">2026-07-10</text>
<rect x="268" y="376" width="694" height="30" rx="0" fill="#FAFAFC"/>
<text x="276" y="396" font-size="11" fill="#1E293B" text-anchor="start">--</text>
<text x="322" y="396" font-size="11" fill="#64748B" text-anchor="middle">--</text>
<text x="360" y="394" font-size="10.5" fill="#1E293B" text-anchor="start">[动画] 测试条目 无 magnet 链接</text>
<text x="610" y="394" font-size="10.5" fill="#64748B" text-anchor="start">日丸动漫</text>
<text x="730" y="394" font-size="10.5" fill="#1E293B" text-anchor="middle">无 magnet</text>
<text x="786" y="394" font-size="10.5" fill="#1E293B" text-anchor="middle">缺失</text>
<text x="842" y="394" font-size="10.5" fill="#64748B" text-anchor="start">2026-07-10</text>
<line x1="268" y1="406" x2="962" y2="406" stroke="#E2E8F0" stroke-width="1"/>
<rect x="0" y="674" width="980" height="72" rx="0" fill="#FCFDFE"/>
<line x1="0" y1="674" x2="980" y2="674" stroke="#E2E8F0" stroke-width="1"/>
<rect x="18" y="692" width="84" height="34" rx="5" fill="#FCFDFE" stroke="#E2E8F0" stroke-width="#E2E8F0"/>
<text x="60.0" y="713" font-size="11" fill="#1E293B" text-anchor="middle">刷新订阅</text>
<rect x="114" y="692" width="84" height="34" rx="5" fill="#FCFDFE" stroke="#E2E8F0" stroke-width="#E2E8F0"/>
<text x="156.0" y="713" font-size="11" fill="#1E293B" text-anchor="middle">全部勾选</text>
<rect x="210" y="692" width="150" height="34" rx="5" fill="#FCFDFE" stroke="#E2E8F0" stroke-width="#E2E8F0"/>
<text x="285.0" y="713" font-size="11" fill="#1E293B" text-anchor="middle">按条件筛选并勾选</text>
<rect x="372" y="692" width="120" height="34" rx="5" fill="#2563EB"/>
<text x="432.0" y="713" font-size="11" fill="#fff" text-anchor="middle" font-weight="700">复制已勾选磁力</text>
<rect x="504" y="692" width="120" height="34" rx="5" fill="#FCFDFE" stroke="#E2E8F0" stroke-width="#E2E8F0"/>
<text x="564.0" y="713" font-size="11" fill="#1E293B" text-anchor="middle">导出已勾选种子</text>
<rect x="0" y="746" width="980" height="34" rx="0" fill="#FCFDFE"/>
<line x1="0" y1="746" x2="980" y2="746" stroke="#E2E8F0" stroke-width="1"/>
<text x="18" y="768" font-size="11" fill="#1D4ED8" text-anchor="start" font-weight="700">正常</text>
<text x="50" y="768" font-size="11" fill="#64748B" text-anchor="start">|</text>
<text x="62" y="768" font-size="10.5" fill="#64748B" text-anchor="start">待导出：还没导出，可复制磁力或导出种子。</text>
<text x="560" y="768" font-size="10.5" fill="#64748B" text-anchor="start">搜索：当前栏目</text>
<text x="700" y="768" font-size="10.5" fill="#64748B" text-anchor="start">|</text>
<text x="712" y="768" font-size="10.5" fill="#64748B" text-anchor="start">RSS 12 个 | 新增 5 | 已勾选 5</text>
<text x="920" y="768" font-size="10.5" fill="#64748B" text-anchor="end">28 分钟</text>
</svg>
