<?xml version="1.0" encoding="UTF-8"?>
<svg xmlns="http://www.w3.org/2000/svg" width="1040" height="820" viewBox="0 0 1040 820" font-family="Microsoft YaHei UI, Segoe UI, PingFang SC, sans-serif">
<rect width="1040" height="820" fill="#EDEFF2"/>
<rect x="26" y="28" width="1000" height="700" rx="10" fill="rgba(15,23,42,0.18)" filter=""/>
<rect x="20" y="20" width="1000" height="700" rx="10" fill="#fff" stroke="#E2E8F0"/>
<rect x="20" y="20" width="1000" height="32" rx="10" fill="#FCFDFE"/>
<rect x="20" y="30" width="1000" height="22" fill="#FCFDFE"/>
<circle cx="42" cy="36" r="6" fill="#E74C3C"/>
<circle cx="62" cy="36" r="6" fill="#F39C12"/>
<circle cx="82" cy="36" r="6" fill="#27AE60"/>
<text x="520" y="42" font-size="12.5" fill="#1E293B" text-anchor="middle" font-weight="700">RSS Magnet Collector</text>
<line x1="20" y1="52" x2="1020" y2="52" stroke="#E2E8F0" stroke-width="1"/>
<rect x="25" y="52" width="990" height="54" rx="0" fill="#FCFDFE"/>
<text x="39" y="74" font-size="11" fill="#1E293B" text-anchor="start" font-weight="700">当前范围：待导出</text>
<text x="171" y="74" font-size="11" fill="#1E293B" text-anchor="start" font-weight="700">| 可见 26 | 可导出 12 | 待导出 12 | 符合条件 8 | 已勾选 5</text>
<rect x="855" y="61" width="120" height="24" rx="5" fill="#1D4ED8"/>
<text x="915" y="77" font-size="11" fill="#fff" text-anchor="middle">取消批选</text>
<text x="39" y="96" font-size="10.5" fill="#64748B" text-anchor="start">条件：(GBK|CHS|简);(1080p)</text>
<text x="445" y="96" font-size="10.5" fill="#1D4ED8" text-anchor="start">批次：已勾选 5 · 导出后剩余转为暂不导出</text>
<line x1="25" y1="106" x2="1015" y2="106" stroke="#E2E8F0" stroke-width="1"/>
<rect x="25" y="106" width="990" height="74" rx="0" fill="#FCFDFE"/>
<text x="39" y="130" font-size="12" fill="#1E293B" text-anchor="start" font-weight="700">条件：</text>
<rect x="91" y="118" width="250" height="22" rx="5" fill="#fff" stroke="#E2E8F0" stroke-width="1"/>
<text x="99" y="133" font-size="11" fill="#1E293B" text-anchor="start">(GBK|CHS|简);(1080p)</text>
<rect x="355" y="118" width="78" height="22" rx="5" fill="#FCFDFE" stroke="#E2E8F0" stroke-width="1"/>
<text x="394" y="133" font-size="11" fill="#1E293B" text-anchor="middle">应用条件</text>
<rect x="439" y="118" width="78" height="22" rx="5" fill="#FCFDFE" stroke="#E2E8F0" stroke-width="1"/>
<text x="478" y="133" font-size="11" fill="#1E293B" text-anchor="middle">条件选择</text>
<rect x="523" y="118" width="78" height="22" rx="5" fill="#FCFDFE" stroke="#E2E8F0" stroke-width="1"/>
<text x="562" y="133" font-size="11" fill="#1E293B" text-anchor="middle">清空条件</text>
<rect x="39" y="150" width="74" height="20" rx="4" fill="#FCFDFE" stroke="#E2E8F0" stroke-width="1"/>
<text x="76" y="164" font-size="10" fill="#1E293B" text-anchor="middle">GBK|CHS|简</text>
<rect x="121" y="150" width="74" height="20" rx="4" fill="#FCFDFE" stroke="#E2E8F0" stroke-width="1"/>
<text x="158" y="164" font-size="10" fill="#1E293B" text-anchor="middle">BIG5|CHT|繁</text>
<rect x="203" y="150" width="44" height="20" rx="4" fill="#FCFDFE" stroke="#E2E8F0" stroke-width="1"/>
<text x="225" y="164" font-size="10" fill="#1E293B" text-anchor="middle">720p</text>
<rect x="255" y="150" width="52" height="20" rx="4" fill="#FCFDFE" stroke="#E2E8F0" stroke-width="1"/>
<text x="281" y="164" font-size="10" fill="#1E293B" text-anchor="middle">1080p</text>
<rect x="315" y="150" width="56" height="20" rx="4" fill="#FCFDFE" stroke="#E2E8F0" stroke-width="1"/>
<text x="343" y="164" font-size="10" fill="#1E293B" text-anchor="middle">1080p+</text>
<rect x="379" y="150" width="68" height="20" rx="4" fill="#FCFDFE" stroke="#E2E8F0" stroke-width="1"/>
<text x="413" y="164" font-size="10" fill="#1E293B" text-anchor="middle">2160p|4K</text>
<rect x="455" y="150" width="70" height="20" rx="4" fill="#FCFDFE" stroke="#E2E8F0" stroke-width="1"/>
<text x="490" y="164" font-size="10" fill="#1E293B" text-anchor="middle">HEVC|H265</text>
<rect x="533" y="150" width="68" height="20" rx="4" fill="#FCFDFE" stroke="#E2E8F0" stroke-width="1"/>
<text x="567" y="164" font-size="10" fill="#1E293B" text-anchor="middle">AVC|H264</text>
<rect x="609" y="150" width="84" height="20" rx="4" fill="#FCFDFE" stroke="#E2E8F0" stroke-width="1"/>
<text x="651" y="164" font-size="10" fill="#1E293B" text-anchor="middle">字幕|内嵌|外挂</text>
<line x1="25" y1="180" x2="1015" y2="180" stroke="#E2E8F0" stroke-width="1"/>
<rect x="25" y="180" width="990" height="38" rx="0" fill="#FCFDFE"/>
<text x="39" y="204" font-size="12" fill="#1E293B" text-anchor="start" font-weight="700">搜索：</text>
<rect x="91" y="192" width="340" height="22" rx="5" fill="#fff" stroke="#E2E8F0" stroke-width="1"/>
<text x="99" y="207" font-size="10.5" fill="#64748B" text-anchor="start">搜索当前栏目，多个关键词用空格分隔</text>
<text x="447" y="206" font-size="11" fill="#1E293B" text-anchor="start">☑ 全局</text>
<text x="515" y="206" font-size="11" fill="#1E293B" text-anchor="start">☑ 含删除</text>
<rect x="585" y="192" width="56" height="22" rx="5" fill="#FCFDFE" stroke="#E2E8F0" stroke-width="1"/>
<text x="613" y="207" font-size="11" fill="#1E293B" text-anchor="middle">清空</text>
<line x1="25" y1="218" x2="1015" y2="218" stroke="#E2E8F0" stroke-width="1"/>
<rect x="25" y="218" width="240" height="436" rx="0" fill="#F1F3F6"/>
<text x="39" y="240" font-size="12" fill="#1E293B" text-anchor="start" font-weight="700">订阅与视图</text>
<text x="47" y="262" font-size="11" fill="#1E293B" text-anchor="start" font-weight="700">▶ 工作区</text>
<text x="47" y="281" font-size="11" fill="#64748B" text-anchor="start">   待导出</text>
<text x="47" y="300" font-size="11" fill="#64748B" text-anchor="start">   暂不导出</text>
<text x="47" y="319" font-size="11" fill="#64748B" text-anchor="start">   已导出</text>
<text x="47" y="338" font-size="11" fill="#64748B" text-anchor="start">   异常条目</text>
<text x="47" y="357" font-size="11" fill="#64748B" text-anchor="start">   检查失败</text>
<text x="47" y="376" font-size="11" fill="#1E293B" text-anchor="start" font-weight="700">▶ RSS 订阅</text>
<text x="47" y="395" font-size="11" fill="#64748B" text-anchor="start">   分组：动画</text>
<text x="47" y="414" font-size="11" fill="#64748B" text-anchor="start">     日丸动漫</text>
<text x="47" y="433" font-size="11" fill="#64748B" text-anchor="start">     Mikan</text>
<text x="47" y="452" font-size="11" fill="#64748B" text-anchor="start">   分组：剧集</text>
<text x="47" y="471" font-size="11" fill="#64748B" text-anchor="start">   分组：其他</text>
<line x1="265" y1="218" x2="265" y2="654" stroke="#E2E8F0" stroke-width="1"/>
<rect x="265" y="218" width="750" height="436" rx="0" fill="#FCFDFE"/>
<text x="279" y="240" font-size="12" fill="#1E293B" text-anchor="start" font-weight="700">条目列表</text>
<rect x="279" y="252" width="722" height="30" rx="0" fill="#F1F3F6"/>
<text x="285" y="271" font-size="10.5" fill="#1E293B" text-anchor="start" font-weight="700">勾选</text>
<line x1="315" y1="252" x2="315" y2="282" stroke="#E2E8F0" stroke-width="1"/>
<text x="321" y="271" font-size="10.5" fill="#1E293B" text-anchor="start" font-weight="700">NEW</text>
<line x1="355" y1="252" x2="355" y2="282" stroke="#E2E8F0" stroke-width="1"/>
<text x="361" y="271" font-size="10.5" fill="#1E293B" text-anchor="start" font-weight="700">标题</text>
<line x1="585" y1="252" x2="585" y2="282" stroke="#E2E8F0" stroke-width="1"/>
<text x="591" y="271" font-size="10.5" fill="#1E293B" text-anchor="start" font-weight="700">订阅源</text>
<line x1="695" y1="252" x2="695" y2="282" stroke="#E2E8F0" stroke-width="1"/>
<text x="701" y="271" font-size="10.5" fill="#1E293B" text-anchor="start" font-weight="700">磁力</text>
<line x1="747" y1="252" x2="747" y2="282" stroke="#E2E8F0" stroke-width="1"/>
<text x="753" y="271" font-size="10.5" fill="#1E293B" text-anchor="start" font-weight="700">种子</text>
<line x1="799" y1="252" x2="799" y2="282" stroke="#E2E8F0" stroke-width="1"/>
<text x="805" y="271" font-size="10.5" fill="#1E293B" text-anchor="start" font-weight="700">提取状态</text>
<line x1="899" y1="252" x2="899" y2="282" stroke="#E2E8F0" stroke-width="1"/>
<rect x="279" y="282" width="722" height="28" rx="0" fill="#FFFFFF"/>
<text x="285" y="301" font-size="11" fill="#1E293B" text-anchor="start">☑</text>
<rect x="318" y="290" width="28" height="13" rx="4" fill="#DBEAFE"/>
<text x="332" y="299" font-size="9" fill="#1D4ED8" text-anchor="middle" font-weight="700">NEW</text>
<text x="361" y="299" font-size="10.5" fill="#1E293B" text-anchor="start">[动画] 日丸新作 2026 第12话 GBK 1080p 简体内嵌</text>
<text x="591" y="299" font-size="10.5" fill="#64748B" text-anchor="start">日丸动漫</text>
<text x="701" y="299" font-size="10.5" fill="#1E293B" text-anchor="middle">已提取</text>
<text x="753" y="299" font-size="10.5" fill="#1E293B" text-anchor="middle">已提取</text>
<text x="805" y="299" font-size="10.5" fill="#1E293B" text-anchor="middle">已提取</text>
<rect x="279" y="310" width="722" height="28" rx="0" fill="#FAFAFC"/>
<text x="285" y="329" font-size="11" fill="#1E293B" text-anchor="start">☐</text>
<text x="328" y="329" font-size="11" fill="#64748B" text-anchor="middle">--</text>
<text x="361" y="327" font-size="10.5" fill="#1E293B" text-anchor="start">[剧集] 某剧 S01 繁体 2160p HEVC</text>
<text x="591" y="327" font-size="10.5" fill="#64748B" text-anchor="start">Mikan</text>
<text x="701" y="327" font-size="10.5" fill="#1E293B" text-anchor="middle">已提取</text>
<text x="753" y="327" font-size="10.5" fill="#1E293B" text-anchor="middle">已提取</text>
<text x="805" y="327" font-size="10.5" fill="#1E293B" text-anchor="middle">已提取</text>
<rect x="279" y="338" width="722" height="28" rx="0" fill="#FFFFFF"/>
<text x="285" y="357" font-size="11" fill="#1E293B" text-anchor="start">☑</text>
<text x="328" y="357" font-size="11" fill="#64748B" text-anchor="middle">--</text>
<text x="361" y="355" font-size="10.5" fill="#1E293B" text-anchor="start">[其他] 资源 720p AVC 简体外挂</text>
<text x="591" y="355" font-size="10.5" fill="#64748B" text-anchor="start">Mikan</text>
<text x="701" y="355" font-size="10.5" fill="#1E293B" text-anchor="middle">已提取</text>
<text x="753" y="355" font-size="10.5" fill="#1E293B" text-anchor="middle">已提取</text>
<text x="805" y="355" font-size="10.5" fill="#1E293B" text-anchor="middle">已提取</text>
<rect x="279" y="366" width="722" height="28" rx="0" fill="#FAFAFC"/>
<text x="285" y="385" font-size="11" fill="#1E293B" text-anchor="start">☐</text>
<text x="328" y="385" font-size="11" fill="#64748B" text-anchor="middle">--</text>
<text x="361" y="383" font-size="10.5" fill="#1E293B" text-anchor="start">[动画] 测试条目 无 magnet 链接</text>
<text x="591" y="383" font-size="10.5" fill="#64748B" text-anchor="start">日丸动漫</text>
<text x="701" y="383" font-size="10.5" fill="#1E293B" text-anchor="middle">已提取</text>
<text x="753" y="383" font-size="10.5" fill="#1E293B" text-anchor="middle">已提取</text>
<text x="805" y="383" font-size="10.5" fill="#1E293B" text-anchor="middle">已提取</text>
<line x1="279" y1="394" x2="1216" y2="394" stroke="#E2E8F0" stroke-width="1"/>
<rect x="25" y="654" width="990" height="36" rx="0" fill="#FCFDFE"/>
<line x1="25" y1="654" x2="1015" y2="654" stroke="#E2E8F0" stroke-width="1"/>
<rect x="39" y="660" width="84" height="24" rx="5" fill="#FCFDFE" stroke="#E2E8F0" stroke-width="1"/>
<text x="81" y="676" font-size="10.5" fill="#1E293B" text-anchor="middle" font-weight="700">刷新订阅</text>
<rect x="133" y="660" width="142" height="24" rx="5" fill="#FCFDFE" stroke="#E2E8F0" stroke-width="1"/>
<text x="204" y="676" font-size="10.5" fill="#1E293B" text-anchor="middle" font-weight="700">按条件筛选并勾选</text>
<rect x="285" y="660" width="120" height="24" rx="5" fill="#2563EB"/>
<text x="345" y="676" font-size="10.5" fill="#fff" text-anchor="middle" font-weight="700">复制已勾选磁力</text>
<rect x="415" y="660" width="126" height="24" rx="5" fill="#FCFDFE" stroke="#E2E8F0" stroke-width="1"/>
<text x="478" y="676" font-size="10.5" fill="#1E293B" text-anchor="middle" font-weight="700">导出已勾选种子</text>
<rect x="25" y="690" width="990" height="30" rx="0" fill="#FCFDFE"/>
<line x1="25" y1="690" x2="1015" y2="690" stroke="#E2E8F0" stroke-width="1"/>
<text x="39" y="710" font-size="11" fill="#1D4ED8" text-anchor="start" font-weight="700">正常</text>
<text x="71" y="710" font-size="11" fill="#64748B" text-anchor="start">|</text>
<text x="81" y="710" font-size="10.5" fill="#64748B" text-anchor="start">待导出：还没导出，可复制磁力或导出种子。</text>
<text x="565" y="710" font-size="10.5" fill="#64748B" text-anchor="start">搜索：当前栏目</text>
<text x="705" y="710" font-size="10.5" fill="#64748B" text-anchor="start">|</text>
<text x="717" y="710" font-size="10.5" fill="#64748B" text-anchor="start">RSS 12 个 | 新增 5 | 已勾选 5</text>
<text x="995" y="710" font-size="10.5" fill="#64748B" text-anchor="end">下次检查 28 分钟</text>
<text x="520" y="750" font-size="13" fill="#1E293B" text-anchor="middle" font-weight="700">托盘图标状态</text>
<path d="M107,758 a9,9 0 0 1 9,-9 h26 a9,9 0 0 1 9,9 v26 a9,9 0 0 1 -9,9 h-26 a9,9 0 0 1 -9,-9 z" fill="#16847D"/>
<rect x="104" y="764" width="32" height="32" rx="7" fill="#16847D" fill-opacity="0.08" stroke="#ffffff" stroke-opacity="0.55" stroke-width="0.8"/>
<path d="M110,786 a9,9 0 0 1 13,-9" stroke="#fcfcfc" stroke-opacity="0.78" stroke-width="2" fill="none" stroke-linecap="round"/>
<path d="M106,786 a14,14 0 0 1 19,-14" stroke="#fcfcfc" stroke-opacity="0.6000000000000001" stroke-width="2" fill="none" stroke-linecap="round"/>
<path d="M100,786 a20,20 0 0 1 28,-20" stroke="#fcfcfc" stroke-opacity="0.42000000000000004" stroke-width="2" fill="none" stroke-linecap="round"/>
<circle cx="120" cy="786" r="3.2" fill="#f5f5f5"/>
<rect x="104" y="758" width="32" height="10" rx="3" fill="rgba(0,0,0,0.55)"/>
<rect x="107" y="761" width="26" height="4" rx="1.5" fill="rgba(255,255,255,0.85)"/>
<text x="120" y="822" font-size="11" fill="#1E293B" text-anchor="middle">正常</text>
<path d="M257,758 a9,9 0 0 1 9,-9 h26 a9,9 0 0 1 9,9 v26 a9,9 0 0 1 -9,9 h-26 a9,9 0 0 1 -9,-9 z" fill="#2980B9"/>
<rect x="254" y="764" width="32" height="32" rx="7" fill="#2980B9" fill-opacity="0.08" stroke="#ffffff" stroke-opacity="0.55" stroke-width="0.8"/>
<path d="M260,786 a9,9 0 0 1 13,-9" stroke="#fcfcfc" stroke-opacity="0.78" stroke-width="2" fill="none" stroke-linecap="round"/>
<path d="M256,786 a14,14 0 0 1 19,-14" stroke="#fcfcfc" stroke-opacity="0.6000000000000001" stroke-width="2" fill="none" stroke-linecap="round"/>
<path d="M250,786 a20,20 0 0 1 28,-20" stroke="#fcfcfc" stroke-opacity="0.42000000000000004" stroke-width="2" fill="none" stroke-linecap="round"/>
<circle cx="270" cy="786" r="3.2" fill="#f5f5f5"/>
<rect x="254" y="758" width="32" height="10" rx="3" fill="rgba(0,0,0,0.55)"/>
<rect x="257" y="761" width="26" height="4" rx="1.5" fill="rgba(255,255,255,0.85)"/>
<text x="270" y="822" font-size="11" fill="#1E293B" text-anchor="middle">检查中</text>
<path d="M407,758 a9,9 0 0 1 9,-9 h26 a9,9 0 0 1 9,9 v26 a9,9 0 0 1 -9,9 h-26 a9,9 0 0 1 -9,-9 z" fill="#27AE60"/>
<rect x="404" y="764" width="32" height="32" rx="7" fill="#27AE60" fill-opacity="0.08" stroke="#ffffff" stroke-opacity="0.55" stroke-width="0.8"/>
<path d="M410,786 a9,9 0 0 1 13,-9" stroke="#fcfcfc" stroke-opacity="0.78" stroke-width="2" fill="none" stroke-linecap="round"/>
<path d="M406,786 a14,14 0 0 1 19,-14" stroke="#fcfcfc" stroke-opacity="0.6000000000000001" stroke-width="2" fill="none" stroke-linecap="round"/>
<path d="M400,786 a20,20 0 0 1 28,-20" stroke="#fcfcfc" stroke-opacity="0.42000000000000004" stroke-width="2" fill="none" stroke-linecap="round"/>
<circle cx="420" cy="786" r="3.2" fill="#f5f5f5"/>
<rect x="404" y="758" width="32" height="10" rx="3" fill="rgba(0,0,0,0.55)"/>
<rect x="407" y="761" width="26" height="4" rx="1.5" fill="rgba(255,255,255,0.85)"/>
<text x="420" y="822" font-size="11" fill="#1E293B" text-anchor="middle">有新增</text>
<path d="M557,758 a9,9 0 0 1 9,-9 h26 a9,9 0 0 1 9,9 v26 a9,9 0 0 1 -9,9 h-26 a9,9 0 0 1 -9,-9 z" fill="#D38924"/>
<rect x="554" y="764" width="32" height="32" rx="7" fill="#D38924" fill-opacity="0.08" stroke="#ffffff" stroke-opacity="0.55" stroke-width="0.8"/>
<path d="M560,786 a9,9 0 0 1 13,-9" stroke="#fcfcfc" stroke-opacity="0.78" stroke-width="2" fill="none" stroke-linecap="round"/>
<path d="M556,786 a14,14 0 0 1 19,-14" stroke="#fcfcfc" stroke-opacity="0.6000000000000001" stroke-width="2" fill="none" stroke-linecap="round"/>
<path d="M550,786 a20,20 0 0 1 28,-20" stroke="#fcfcfc" stroke-opacity="0.42000000000000004" stroke-width="2" fill="none" stroke-linecap="round"/>
<circle cx="570" cy="786" r="3.2" fill="#f5f5f5"/>
<rect x="554" y="758" width="32" height="10" rx="3" fill="rgba(0,0,0,0.55)"/>
<rect x="557" y="761" width="26" height="4" rx="1.5" fill="rgba(255,255,255,0.85)"/>
<text x="570" y="822" font-size="11" fill="#1E293B" text-anchor="middle">部分失败</text>
<path d="M707,758 a9,9 0 0 1 9,-9 h26 a9,9 0 0 1 9,9 v26 a9,9 0 0 1 -9,9 h-26 a9,9 0 0 1 -9,-9 z" fill="#C0392B"/>
<rect x="704" y="764" width="32" height="32" rx="7" fill="#C0392B" fill-opacity="0.08" stroke="#ffffff" stroke-opacity="0.55" stroke-width="0.8"/>
<path d="M710,786 a9,9 0 0 1 13,-9" stroke="#fcfcfc" stroke-opacity="0.78" stroke-width="2" fill="none" stroke-linecap="round"/>
<path d="M706,786 a14,14 0 0 1 19,-14" stroke="#fcfcfc" stroke-opacity="0.6000000000000001" stroke-width="2" fill="none" stroke-linecap="round"/>
<path d="M700,786 a20,20 0 0 1 28,-20" stroke="#fcfcfc" stroke-opacity="0.42000000000000004" stroke-width="2" fill="none" stroke-linecap="round"/>
<circle cx="720" cy="786" r="3.2" fill="#f5f5f5"/>
<rect x="704" y="758" width="32" height="10" rx="3" fill="rgba(0,0,0,0.55)"/>
<rect x="707" y="761" width="26" height="4" rx="1.5" fill="rgba(255,255,255,0.85)"/>
<text x="720" y="822" font-size="11" fill="#1E293B" text-anchor="middle">离线</text>
<path d="M857,758 a9,9 0 0 1 9,-9 h26 a9,9 0 0 1 9,9 v26 a9,9 0 0 1 -9,9 h-26 a9,9 0 0 1 -9,-9 z" fill="#95A5A6"/>
<rect x="854" y="764" width="32" height="32" rx="7" fill="#95A5A6" fill-opacity="0.08" stroke="#ffffff" stroke-opacity="0.55" stroke-width="0.8"/>
<path d="M860,786 a9,9 0 0 1 13,-9" stroke="#fcfcfc" stroke-opacity="0.78" stroke-width="2" fill="none" stroke-linecap="round"/>
<path d="M856,786 a14,14 0 0 1 19,-14" stroke="#fcfcfc" stroke-opacity="0.6000000000000001" stroke-width="2" fill="none" stroke-linecap="round"/>
<path d="M850,786 a20,20 0 0 1 28,-20" stroke="#fcfcfc" stroke-opacity="0.42000000000000004" stroke-width="2" fill="none" stroke-linecap="round"/>
<circle cx="870" cy="786" r="3.2" fill="#f5f5f5"/>
<rect x="854" y="758" width="32" height="10" rx="3" fill="rgba(0,0,0,0.55)"/>
<rect x="857" y="761" width="26" height="4" rx="1.5" fill="rgba(255,255,255,0.85)"/>
<text x="870" y="822" font-size="11" fill="#1E293B" text-anchor="middle">暂停</text>
</svg>
